<svg width="44" height="44" viewBox="0 0 44 44" fill="none" xmlns="http://www.w3.org/2000/svg">
<rect width="44" height="44" rx="8" fill="#EAEAE9"/>
<path d="M12.5256 22C12.5256 24.5126 13.5237 26.9222 15.3003 28.6989C17.077 30.4755 19.4867 31.4737 21.9992 31.4737C23.2433 31.4737 24.4753 31.2286 25.6247 30.7525C26.7741 30.2764 27.8184 29.5786 28.6981 28.6989C29.5779 27.8192 30.2757 26.7748 30.7518 25.6254C31.2279 24.476 31.4729 23.2441 31.4729 22C31.4729 21.0925 31.3456 20.2154 31.1081 19.3857C31.0609 19.1953 31.0894 18.9939 31.1877 18.824C31.286 18.6541 31.4463 18.529 31.635 18.4749C31.8236 18.4208 32.0259 18.442 32.1992 18.5341C32.3726 18.6261 32.5034 18.7818 32.5643 18.9684C32.8412 19.9324 32.9887 20.949 32.9887 22C32.9887 28.0692 28.0685 32.9895 21.9992 32.9895C15.93 32.9895 11.0098 28.0692 11.0098 22C11.0098 15.9308 15.93 11.0105 21.9992 11.0105C23.0249 11.0095 24.0445 11.152 25.0308 11.4339C25.127 11.4609 25.2169 11.5066 25.2953 11.5684C25.3737 11.6303 25.4392 11.707 25.4879 11.7942C25.5366 11.8814 25.5675 11.9774 25.579 12.0766C25.5905 12.1758 25.5822 12.2763 25.5547 12.3723C25.5272 12.4683 25.481 12.558 25.4188 12.6361C25.3565 12.7142 25.2794 12.7792 25.192 12.8274C25.1045 12.8756 25.0083 12.9061 24.9091 12.917C24.8098 12.9279 24.7093 12.9191 24.6135 12.8911C23.7633 12.6484 22.8834 12.5256 21.9992 12.5263C19.4867 12.5263 17.077 13.5244 15.3003 15.3011C13.5237 17.0777 12.5256 19.4874 12.5256 22Z" fill="#A42D71"/>
<path d="M30.1725 16.7501H28.3115L23.7455 21.3141C23.9027 21.7149 23.9172 22.1577 23.7864 22.5679C23.6557 22.9781 23.3876 23.3307 23.0274 23.5665C22.6672 23.8024 22.2368 23.907 21.8085 23.8628C21.3803 23.8185 20.9803 23.6282 20.6758 23.3238C20.3714 23.0193 20.1811 22.6194 20.1369 22.1911C20.0927 21.7628 20.1973 21.3324 20.4331 20.9722C20.6689 20.612 21.0216 20.344 21.4318 20.2132C21.842 20.0824 22.2847 20.0969 22.6855 20.2541L27.2505 15.6891V13.8281C27.2506 13.5791 27.3495 13.3403 27.5255 13.1641L29.2555 11.4341C29.2875 11.4019 29.3277 11.379 29.3717 11.3679C29.4158 11.3568 29.462 11.3579 29.5055 11.3711C29.5945 11.3971 29.6605 11.4711 29.6785 11.5621L30.1385 13.8631L32.4385 14.3231C32.5285 14.3411 32.6025 14.4071 32.6285 14.4961C32.6416 14.5394 32.6428 14.5854 32.6319 14.6292C32.6209 14.673 32.5983 14.7131 32.5665 14.7451L30.8355 16.4751C30.6595 16.6509 30.4211 16.7498 30.1725 16.7501Z" fill="#A42D71"/>
<path d="M17.1238 21.9998C17.1266 22.6621 17.2643 23.3169 17.5286 23.9242C17.7929 24.5315 18.1782 25.0786 18.661 25.532C19.1438 25.9855 19.7139 26.3357 20.3366 26.5615C20.9593 26.7872 21.6214 26.8836 22.2826 26.8449C22.9438 26.8062 23.5902 26.6331 24.1823 26.3363C24.7744 26.0394 25.2997 25.625 25.7263 25.1183C26.1529 24.6116 26.4717 24.0233 26.6633 23.3893C26.8549 22.7553 26.9153 22.0889 26.8408 21.4308C26.8198 21.2975 26.8352 21.161 26.8855 21.0358C26.9357 20.9106 27.0189 20.8013 27.1262 20.7195C27.2335 20.6377 27.361 20.5864 27.495 20.5712C27.6291 20.5559 27.7648 20.5772 27.8878 20.6328C28.1388 20.7448 28.3078 20.9838 28.3298 21.2578C28.485 22.573 28.2267 23.904 27.5907 25.0656C26.9546 26.2273 25.9725 27.1619 24.7807 27.7396C23.589 28.3174 22.2469 28.5095 20.941 28.2892C19.635 28.069 18.4301 27.4474 17.4938 26.5108C16.5577 25.5752 15.9359 24.3715 15.7147 23.0667C15.4935 21.7618 15.6838 20.4205 16.2593 19.2286C16.8348 18.0368 17.7668 17.0536 18.9263 16.4154C20.0857 15.7771 21.415 15.5155 22.7298 15.6668C22.8292 15.676 22.9257 15.705 23.0138 15.752C23.1018 15.799 23.1796 15.8632 23.2425 15.9406C23.3055 16.0181 23.3523 16.1074 23.3804 16.2032C23.4084 16.299 23.417 16.3994 23.4056 16.4986C23.3943 16.5978 23.3633 16.6937 23.3145 16.7807C23.2656 16.8678 23.1998 16.9442 23.1211 17.0055C23.0423 17.0668 22.952 17.1118 22.8557 17.1377C22.7593 17.1637 22.6587 17.1702 22.5598 17.1568C21.8768 17.0778 21.1848 17.1442 20.5293 17.3515C19.8738 17.5589 19.2696 17.9025 18.7562 18.3598C18.2429 18.8172 17.832 19.3779 17.5507 20.0052C17.2694 20.6325 17.1239 21.3123 17.1238 21.9998Z" fill="#A42D71"/>
</svg>
