<svg width="44" height="44" viewBox="0 0 44 44" fill="none" xmlns="http://www.w3.org/2000/svg">
<rect width="44" height="44" rx="8" fill="#F4E6EE"/>
<path d="M17.5005 15.6L15.0005 17L16.4005 14.5L15.0005 12L17.5005 13.4L20.0005 12L18.6005 14.5L20.0005 17L17.5005 15.6ZM29.5005 25.4L32.0005 24L30.6005 26.5L32.0005 29L29.5005 27.6L27.0005 29L28.4005 26.5L27.0005 24L29.5005 25.4ZM32.0005 12L30.6005 14.5L32.0005 17L29.5005 15.6L27.0005 17L28.4005 14.5L27.0005 12L29.5005 13.4L32.0005 12ZM23.3405 22.78L25.7805 20.34L23.6605 18.22L21.2205 20.66L23.3405 22.78ZM24.3705 17.29L26.7105 19.63C27.1005 20 27.1005 20.65 26.7105 21.04L15.0405 32.71C14.6505 33.1 14.0005 33.1 13.6305 32.71L11.2905 30.37C10.9005 30 10.9005 29.35 11.2905 28.96L22.9605 17.29C23.3505 16.9 24.0005 16.9 24.3705 17.29Z" fill="#910254"/>
</svg>
