<svg width="45" height="44" viewBox="0 0 45 44" fill="none" xmlns="http://www.w3.org/2000/svg">
<rect x="0.666016" width="44" height="44" rx="8" fill="#EAEAE9"/>
<path d="M20.0178 18.8052L20.6376 19.2276L20.0178 18.8052ZM24.0871 19.2792L24.4802 18.6404L24.0871 19.2792ZM21.3156 18.0065L21.2321 17.2612L21.3156 18.0065ZM21.3156 25.9935L21.2321 26.7388L21.3156 25.9935ZM20.0178 25.1948L19.3981 25.6172L20.0178 25.1948ZM26.5068 22.7987L25.8147 22.5096L26.5068 22.7987ZM26.5068 21.2013L25.8147 21.4904L26.5068 21.2013ZM31.916 22C31.916 27.1086 27.7746 31.25 22.666 31.25V32.75C28.6031 32.75 33.416 27.9371 33.416 22H31.916ZM22.666 31.25C17.5574 31.25 13.416 27.1086 13.416 22H11.916C11.916 27.9371 16.729 32.75 22.666 32.75V31.25ZM13.416 22C13.416 16.8914 17.5574 12.75 22.666 12.75V11.25C16.729 11.25 11.916 16.0629 11.916 22H13.416ZM22.666 12.75C27.7746 12.75 31.916 16.8914 31.916 22H33.416C33.416 16.0629 28.6031 11.25 22.666 11.25V12.75ZM20.416 22C20.416 21.0932 20.4167 20.462 20.4572 19.9908C20.4983 19.5138 20.5735 19.3216 20.6376 19.2276L19.3981 18.3828C19.1104 18.8049 19.0096 19.3173 18.9628 19.8622C18.9154 20.413 18.916 21.121 18.916 22H20.416ZM24.4802 18.6404C23.7679 18.2021 23.1881 17.8443 22.7114 17.6099C22.2398 17.3781 21.7488 17.2033 21.2321 17.2612L21.3991 18.7519C21.4776 18.7431 21.6469 18.7581 22.0496 18.9561C22.4471 19.1515 22.9554 19.4634 23.694 19.9179L24.4802 18.6404ZM20.6376 19.2276C20.8273 18.9492 21.1076 18.7845 21.3991 18.7519L21.2321 17.2612C20.4852 17.3449 19.8221 17.7608 19.3981 18.3828L20.6376 19.2276ZM23.694 24.0821C22.9554 24.5366 22.4471 24.8485 22.0496 25.0439C21.6469 25.2419 21.4776 25.2569 21.3991 25.2481L21.2321 26.7388C21.7488 26.7967 22.2398 26.6219 22.7114 26.3901C23.1881 26.1557 23.7679 25.7979 24.4802 25.3596L23.694 24.0821ZM18.916 22C18.916 22.879 18.9154 23.587 18.9628 24.1378C19.0096 24.6827 19.1104 25.1951 19.3981 25.6172L20.6376 24.7724C20.5735 24.6784 20.4983 24.4862 20.4572 24.0092C20.4167 23.538 20.416 22.9068 20.416 22H18.916ZM21.3991 25.2481C21.1076 25.2155 20.8273 25.0508 20.6376 24.7724L19.3981 25.6172C19.8221 26.2392 20.4852 26.6551 21.2321 26.7388L21.3991 25.2481ZM24.4802 25.3596C25.1928 24.921 25.7729 24.5649 26.2009 24.2426C26.6287 23.9204 26.9997 23.5645 27.1988 23.0877L25.8147 22.5096C25.7704 22.6157 25.6569 22.7745 25.2985 23.0444C24.9402 23.3142 24.4322 23.6278 23.694 24.0821L24.4802 25.3596ZM23.694 19.9179C24.4322 20.3722 24.9402 20.6858 25.2985 20.9556C25.6569 21.2255 25.7704 21.3843 25.8147 21.4904L27.1988 20.9123C26.9997 20.4355 26.6287 20.0796 26.2009 19.7574C25.7729 19.4351 25.1928 19.079 24.4802 18.6404L23.694 19.9179ZM27.1988 23.0877C27.4884 22.3944 27.4884 21.6056 27.1988 20.9123L25.8147 21.4904C25.9498 21.8138 25.9498 22.1862 25.8147 22.5096L27.1988 23.0877Z" fill="#910254"/>
</svg>
